<svg id="Layer_1" data-name="Layer 1" xmlns="http://www.w3.org/2000/svg" viewBox="0 0 877.29 674.04"><defs><style>.cls-1{fill:#0e0c0d;}.cls-2{fill:#44b549;}.cls-3{fill:#fff;}</style></defs><path class="cls-1" d="M653.23,1337l-27.69-65.19L597.85,1337l-36.5-93.77h15.36l23.28,61,26.18-62.93,26.31,63.18,23.28-61.3h14Z" transform="translate(-561.35 -662.98)"/><path class="cls-1" d="M776.58,1243.25v89.37H762.74v-40.15H714.91v40.15H701.07v-89.37h13.84v36.13h47.83v-36.13Z" transform="translate(-561.35 -662.98)"/><path class="cls-1" d="M798,1243.25h13.84v89.37H798Z" transform="translate(-561.35 -662.98)"/><path class="cls-1" d="M886.72,1256.34H862.81v76.28H849v-76.28H825.05v-13.09h61.67Z" transform="translate(-561.35 -662.98)"/><path class="cls-1" d="M950.28,1319.78v12.84h-51.6v-89.37h47.83V1256h-34v24.29h37.13v11.83H912.52v27.69Z" transform="translate(-561.35 -662.98)"/><path class="cls-1" d="M1086.84,1337l-27.68-65.19L1031.47,1337,995,1243.25h15.35l23.28,61,26.18-62.93,26.31,63.18,23.28-61.3h14Z" transform="translate(-561.35 -662.98)"/><path class="cls-1" d="M1210.2,1243.25v89.37h-13.85v-40.15h-47.83v40.15h-13.84v-89.37h13.84v36.13h47.83v-36.13Z" transform="translate(-561.35 -662.98)"/><path class="cls-1" d="M1285,1307.82h-37.25l-11.46,24.8h-14.72l45.31-93.77,45.31,93.77h-16Zm-5.28-11.83-13.09-29-13.34,29Z" transform="translate(-561.35 -662.98)"/><path class="cls-1" d="M1375.08,1319.53v13.09h-51.6v-89.37h13.85v76.28Z" transform="translate(-561.35 -662.98)"/><path class="cls-1" d="M1438.65,1319.78v12.84H1387v-89.37h47.83V1256h-34v24.29H1438v11.83h-37.13v27.69Z" transform="translate(-561.35 -662.98)"/><circle class="cls-2" cx="438.65" cy="243" r="243"/><path class="cls-1" d="M1227.54,906c0,109-76.71,200.17-179.11,222.37l-1.48-6.83a222.17,222.17,0,0,1-47,5c-110.37,0-204.38-82.39-218.67-191.66A222.48,222.48,0,0,1,779.45,906h-7c0-125.67,101.88-227.54,227.54-227.54v7c121.61,0,220.55,99,220.55,220.56Z" transform="translate(-561.35 -662.98)"/><path class="cls-2" d="M1116.17,1079.06l-7.8-11.6a194.42,194.42,0,0,0,55.49-265.9l11.78-7.53a208.4,208.4,0,0,1-59.47,285Z" transform="translate(-561.35 -662.98)"/><path class="cls-2" d="M827.42,1022.83a208.47,208.47,0,0,1-6.94-222.48,209.4,209.4,0,0,1,75.58-74.83l7,12.11A194.44,194.44,0,0,0,839,1015Z" transform="translate(-561.35 -662.98)"/><path class="cls-2" d="M919.78,1069.87A182,182,0,0,1,848,806.55l11.67,7.69A168,168,0,0,0,926,1057.32Z" transform="translate(-561.35 -662.98)"/><path class="cls-2" d="M1176,952.8l-13.52-3.55a168.82,168.82,0,0,0,5.48-42.73c0-92.61-75.35-168-168-168v-14a181.94,181.94,0,0,1,181.94,181.93A182.6,182.6,0,0,1,1176,952.8Z" transform="translate(-561.35 -662.98)"/><path class="cls-3" d="M1137.22,839.61c-33.13,50.48-62.63,35.18-97.87,28.35s-54.69,30.5-54.69,30.5l.06-.19c-.67,1.22-1.33,2.46-2,3.71-1.13,2.22-2.15,4.49-3.13,6.84a35.39,35.39,0,0,1,1.17-7.57,48.89,48.89,0,0,1,2.5-7.28,51.33,51.33,0,0,1,4.59-8.42c5.47-35.3-23.68-48.88-60.52-70.13-41-23.67-22.66-49.49-22.66-49.49s-69.37,72-23.09,140.18,104.82,87.39,43.82,189.94c0,0,41.46,24.07,108.16,12.29-17.43-74.47-13-102.52,14.58-127.83l-3,1.09c-1.07.36-2.18.64-3.27.93l-1.65.43c-.55.13-1.12.21-1.68.32-1.12.19-2.24.38-3.35.54s-2.27.17-3.4.23c-.57,0-1.13.06-1.69.07s-1.14,0-1.7-.09c-1.13-.07-2.26-.15-3.37-.29,1.09-.34,2.17-.62,3.24-.89l1.61-.39,1.58-.49,3.14-.9q1.54-.55,3.09-1.05c.51-.17,1-.32,1.53-.51l1.52-.58c1-.41,2-.72,3-1.15l3-1.25c1-.39,2-.89,3-1.32,3.92-1.8,7.77-3.76,11.59-5.86.91-.51,1.81-1,2.71-1.53a157.47,157.47,0,0,0,35.32-23.56C1164.78,885.81,1137.22,839.61,1137.22,839.61Z" transform="translate(-561.35 -662.98)"/></svg>