<svg width="38" height="38" viewBox="0 0 38 38" fill="none" xmlns="http://www.w3.org/2000/svg">
<path d="M19 38C29.4934 38 38 29.4934 38 19C38 8.50659 29.4934 0 19 0C8.50659 0 0 8.50659 0 19C0 29.4934 8.50659 38 19 38Z" fill="#3CCD64"/>
<path d="M36.5379 19.2014C36.5379 27.7023 30.6259 34.807 22.7336 36.5379L22.6191 36.0052C21.43 36.2647 20.2171 36.3955 19.0007 36.3955C10.4939 36.3955 3.24817 29.9722 2.14684 21.4542C2.05117 20.7072 2.00331 19.9547 2.00357 19.2014H1.46094C1.46094 9.40481 9.31267 1.46094 18.9994 1.46094V2.00555C28.3747 2.00555 35.9978 9.71901 35.9978 19.1997L36.5379 19.2014Z" fill="#0E0C0D"/>
<path d="M28.3387 32.8843L27.7695 31.9626C34.1731 27.2828 35.9735 17.9029 31.8256 10.8288L32.6862 10.2305C37.133 17.8136 35.204 27.8681 28.3387 32.8843Z" fill="#3CCD64"/>
<path d="M5.73947 28.4998C4.47677 26.6344 3.61241 24.529 3.20032 22.315C2.78822 20.101 2.83724 17.8259 3.34432 15.6317C3.85139 13.4375 4.80564 11.3712 6.14752 9.56181C7.4894 7.75242 9.19012 6.23874 11.1435 5.11523L11.6931 6.06837C6.96369 8.79365 4.02575 13.8711 4.02575 19.3196C4.02018 22.3731 4.93487 25.3575 6.65073 27.8844L5.73947 28.4998Z" fill="#3CCD64"/>
<path d="M12.6943 32.1532C5.97474 28.5845 3.2055 19.8025 6.50931 12.5405C6.75717 11.9958 7.03608 11.4683 7.34446 10.9609L8.2139 11.5788C6.86962 13.7839 6.15512 16.3675 6.15933 19.0081C6.15933 24.201 8.83954 28.8502 13.1537 31.1452L12.6943 32.1532Z" fill="#3CCD64"/>
<path d="M32.431 22.6537L31.3991 22.381C31.6774 21.309 31.818 20.2055 31.8176 19.0975C31.8176 11.9799 26.0676 6.1894 19 6.1894V5.11523C26.6677 5.11566 32.8846 11.3756 32.8846 19.0975C32.8849 20.2975 32.7325 21.4927 32.431 22.6537V22.6537Z" fill="#3CCD64"/>
<path d="M29.5213 13.8039C26.989 17.753 24.7342 16.5563 22.041 16.0214C19.3478 15.4865 17.86 18.4058 17.86 18.4058C17.86 18.4058 17.8629 18.396 17.8646 18.3912C17.8135 18.4869 17.7636 18.5834 17.7158 18.6812C17.6295 18.8528 17.5515 19.0325 17.4769 19.2165C17.4853 19.0165 17.5151 18.818 17.5658 18.6246C17.6148 18.4298 17.6785 18.2392 17.7565 18.0545C17.8535 17.8244 17.971 17.604 18.1077 17.3961C18.5268 14.6347 16.2976 13.5722 13.4824 11.9097C10.347 10.0585 11.7502 8.03906 11.7502 8.03906C11.7502 8.03906 6.44891 13.6752 9.98619 19.0042C13.5235 24.3332 17.9979 25.84 13.3336 33.8618C13.3336 33.8618 16.5025 35.7448 21.601 34.8239C20.2682 28.9982 20.6047 26.8029 22.7154 24.8247L22.4853 24.9105C22.4015 24.9392 22.3177 24.9603 22.2338 24.9834L22.1081 25.0173C22.0662 25.0276 22.0243 25.0336 21.9798 25.0418C21.896 25.0572 21.8089 25.0718 21.7234 25.0846C21.6379 25.0975 21.5498 25.0975 21.4639 25.1027C21.422 25.1027 21.3776 25.107 21.3344 25.1078C21.2913 25.1087 21.2477 25.1044 21.2045 25.1009C21.1182 25.0954 21.0322 25.0889 20.9472 25.0782C21.031 25.0516 21.1148 25.0297 21.1953 25.0083C21.2372 24.9971 21.277 24.9877 21.3177 24.9778L21.4388 24.9397C21.5188 24.9152 21.5989 24.8921 21.6789 24.8693C21.759 24.8466 21.8361 24.8131 21.9145 24.787C21.9539 24.7737 21.9933 24.7621 22.0318 24.7471L22.1479 24.7016C22.2242 24.6699 22.303 24.6454 22.3784 24.6115L22.6064 24.5142C22.6831 24.4833 22.7565 24.4447 22.8319 24.4104C23.1311 24.2697 23.4265 24.117 23.7179 23.9523L23.9274 23.833C24.9291 23.3183 25.8134 22.7337 26.6269 21.9886C31.6282 17.4167 29.5213 13.8039 29.5213 13.8039Z" fill="white"/>
</svg>
